# xmcd
#
# Track frame offsets:
#	150
#	18087
#	32650
#	45646
#	60830
#	70129
#	89200
#	99200
#	115544
#	126193
#	138002
#	149758
#	161676
#	172891
#	184862
#	196185
#	212609
#	224014
#	234340
#	244313
#	260334
#	269605
#	283142
#	296030
#
# Disc length: 4109 seconds
#
# Revision: 1
# Processed by: cddbd v1.5.1PL0 Copyright (c) Steve Scherf et al.
# Submitted via: audiograbber 1.82.01
#
DISCID=66100b18
DTITLE=Gino and Geno - Xote e Batidão Vol.02
DYEAR=1900
DGENRE=Sertanejo
TTITLE0=Lolota
TTITLE1=Linda Cigana
TTITLE2=Vim Dizer Adeus
TTITLE3=As Águas De São Francisco
TTITLE4=Morena Bonita
TTITLE5=Coração Cigano (Part. Esp. Rick and Renne)
TTITLE6=Procurando Treta
TTITLE7=Quando Ela Quer
TTITLE8=Vontade De Te Ver
TTITLE9=Chore Por Mim Violão
TTITLE10=Convite De Baile
TTITLE11=Blusa Vermelha
TTITLE12=Quatro Beijos
TTITLE13=Xonado Sem Quantia
TTITLE14=Solidão
TTITLE15=Balão De Seda
TTITLE16=Bate Cocha
TTITLE17=Fim De Baile
TTITLE18=Vou Virar Pinguin
TTITLE19=Perguntando a Deus
TTITLE20=Vou Gastar O Barão
TTITLE21=Quatro Tipos De Mulher
TTITLE22=Roubando A Morena
TTITLE23=História Da Goteira
EXTD=
EXTT0=
EXTT1=
EXTT2=
EXTT3=
EXTT4=
EXTT5=
EXTT6=
EXTT7=
EXTT8=
EXTT9=
EXTT10=
EXTT11=
EXTT12=
EXTT13=
EXTT14=
EXTT15=
EXTT16=
EXTT17=
EXTT18=
EXTT19=
EXTT20=
EXTT21=
EXTT22=
EXTT23=
PLAYORDER=
